<?xml version="1.0" encoding="UTF-8" standalone="no" ?>
<svg xmlns="http://www.w3.org/2000/svg" width="154.900px" height="88.553px" viewBox="0 -748 1742 996" xmlns:xlink="http://www.w3.org/1999/xlink" style=""><defs><path id="MJX-49-NCM-I-1D707" d="M572 142C572 151 567 156 556 156C548 156 542 149 539 136C519 56 495 16 468 16C451 16 442 30 442 58C442 75 448 109 461 159L489 266C498 302 506 327 512 358L518 386C520 393 521 398 521 400C521 421 510 431 488 431C466 431 452 419 446 394L374 108C374 97 358 77 326 47C304 26 279 16 250 16C204 16 181 43 181 98C181 117 185 144 194 181L236 347C244 378 249 400 251 411C251 432 240 442 218 442C196 442 182 429 175 403L33-169C31-177 30-182 30-185C30-206 41-216 62-216C77-216 89-208 100-193C103-186 120-117 153 14C177-4 208-13 246-13C305-13 344 18 375 54C386 17 419-13 466-13C535-13 556 68 572 142Z"/><path id="MJX-49-NCM-N-2061" d=""/><path id="MJX-49-NCM-N-28" d="M318-248C327-248 332-243 332-234C332-231 330-227 327-223C275-183 233-117 202-26C175 53 161 131 161 208L161 292C161 369 175 447 202 526C233 617 275 683 327 723C330 726 332 730 332 734C332 743 327 748 318 748C317 748 314 747 311 745C251 699 201 631 160 540C121 453 101 371 101 292L101 208C101 129 121 47 160-40C201-131 251-199 311-245C314-247 317-248 318-248Z"/><path id="MJX-49-NCM-I-1D461" d="M330 419C330 428 320 433 299 433L218 433C244 537 257 591 257 595C257 616 246 626 225 626C202 626 188 613 182 587L145 433L56 433C34 433 23 432 23 411C23 400 33 395 54 395L135 395C86 200 62 97 62 84C62 28 100-11 156-11C194-11 227 6 256 41C280 70 297 98 308 125C312 136 314 142 314 145C314 154 309 159 299 159C291 159 285 154 281 143C247 60 206 19 157 19C140 19 131 33 131 60C131 75 133 91 137 107L208 395L297 395C323 395 330 397 330 419Z"/><path id="MJX-49-NCM-N-29" d="M78-245C138-199 188-131 229-40C268 47 288 129 288 208L288 292C288 371 268 453 229 540C188 631 138 699 78 745C75 747 72 748 71 748C62 748 57 743 57 734C57 730 59 726 62 723C114 683 156 617 187 526C214 447 228 369 228 292L228 208C228 131 214 53 187-26C156-117 114-183 62-223C59-227 57-231 57-234C57-243 62-248 71-248C72-248 75-247 78-245Z"/></defs><g stroke="#fff" fill="#fff" stroke-width="0" transform="scale(1,-1)"><g data-mml-node="math" data-latex="\mu(t)" data-semantic-type="appl" data-semantic-role="simple function" data-semantic-annotation="clearspeak:simple;depth:1" data-semantic-id="6" data-semantic-children="0,4" data-semantic-content="5,0" data-semantic-attributes="latex:\mu(t)" data-semantic-owns="0 5 4" aria-level="0" data-speech-node="true" data-semantic-structure="(6 0 5 (4 1 2 3))"><g data-mml-node="mi" data-latex="\mu" data-semantic-type="identifier" data-semantic-role="simple function" data-semantic-font="italic" data-semantic-annotation="clearspeak:simple;nemeth:number;depth:2" data-semantic-id="0" data-semantic-parent="6" data-semantic-attributes="latex:\mu" data-semantic-operator="appl" aria-level="1" data-speech-node="true"><use data-c="1D707" xmlns:xlink="http://www.w3.org/1999/xlink" xlink:href="#MJX-49-NCM-I-1D707"/></g><g data-mml-node="mo" data-semantic-type="punctuation" data-semantic-role="application" data-semantic-annotation="nemeth:number;depth:2" data-semantic-id="5" data-semantic-parent="6" data-semantic-added="true" data-semantic-operator="appl" aria-level="1" data-speech-node="true" transform="translate(603,0)"><use data-c="2061" xmlns:xlink="http://www.w3.org/1999/xlink" xlink:href="#MJX-49-NCM-N-2061"/></g><g data-mml-node="mrow" data-semantic-added="true" data-semantic-type="fenced" data-semantic-role="leftright" data-semantic-annotation="depth:2" data-semantic-id="4" data-semantic-children="2" data-semantic-content="1,3" data-semantic-parent="6" data-semantic-owns="1 2 3" aria-level="1" data-speech-node="true" transform="translate(603,0)"><g data-mml-node="mo" data-latex="(" data-semantic-type="fence" data-semantic-role="open" data-semantic-annotation="depth:3" data-semantic-id="1" data-semantic-parent="4" data-semantic-attributes="latex:(" data-semantic-operator="fenced" aria-level="2" data-speech-node="true"><use data-c="28" xmlns:xlink="http://www.w3.org/1999/xlink" xlink:href="#MJX-49-NCM-N-28"/></g><g data-mml-node="mi" data-latex="t" data-semantic-type="identifier" data-semantic-role="latinletter" data-semantic-font="italic" data-semantic-annotation="clearspeak:simple;depth:3" data-semantic-id="2" data-semantic-parent="4" data-semantic-attributes="latex:t" aria-level="2" data-speech-node="true" transform="translate(389,0)"><use data-c="1D461" xmlns:xlink="http://www.w3.org/1999/xlink" xlink:href="#MJX-49-NCM-I-1D461"/></g><g data-mml-node="mo" data-latex=")" data-semantic-type="fence" data-semantic-role="close" data-semantic-annotation="depth:3" data-semantic-id="3" data-semantic-parent="4" data-semantic-attributes="latex:)" data-semantic-operator="fenced" aria-level="2" data-speech-node="true" transform="translate(750,0)"><use data-c="29" xmlns:xlink="http://www.w3.org/1999/xlink" xlink:href="#MJX-49-NCM-N-29"/></g></g></g></g></svg>